<svg width="109" height="147" viewBox="0 0 109 147" fill="none" xmlns="http://www.w3.org/2000/svg">
<g clip-path="url(#clip0_137_1418)">
<path fill-rule="evenodd" clip-rule="evenodd" d="M27.9323 0H82.0677C94.8496 0 105 10.5263 105 22.9323V77.0677C105 89.8496 94.8496 100 82.0677 100H27.9323C15.5263 100 5 89.8496 5 77.0677V22.9323C5 10.5263 15.5263 0 27.9323 0ZM8.7594 50H23.797C23.797 32.7068 37.7068 18.797 55 18.797C72.2932 18.797 86.203 32.7068 86.203 50H101.241V22.9323C101.241 12.406 92.594 3.7594 82.0677 3.7594H27.9323C17.406 3.7594 8.7594 12.406 8.7594 22.9323V50ZM55 26.3158C68.1579 26.3158 78.6842 36.8421 78.6842 50C78.6842 63.1579 68.1579 73.6842 55 73.6842C41.8421 73.6842 31.3158 63.1579 31.3158 50C31.3158 36.8421 41.8421 26.3158 55 26.3158ZM62.5188 53.0075C65.9023 53.0075 68.5338 56.015 68.5338 59.3985C68.5338 62.782 65.9023 65.4135 62.5188 65.4135C59.1353 65.4135 56.5038 62.782 56.5038 59.3985C56.5038 56.015 59.1353 53.0075 62.5188 53.0075ZM40.7143 53.7594C41.4662 56.391 37.7068 57.1429 36.9549 54.8872C33.9474 43.2331 42.594 31.5789 55 31.5789C57.6316 31.5789 57.6316 35.3383 55 35.3383C45.2256 35.3383 38.0827 44.7368 40.7143 53.7594ZM26.0526 12.406C33.1955 12.406 33.1955 23.3083 26.0526 23.3083C18.9098 23.3083 18.9098 12.406 26.0526 12.406ZM55 22.5564C70.0376 22.5564 82.4436 34.9624 82.4436 50C82.4436 65.0376 70.0376 77.4436 55 77.4436C39.9624 77.4436 27.5564 65.0376 27.5564 50C27.5564 34.9624 39.9624 22.5564 55 22.5564Z" fill="#493628"/>
</g>
<path d="M10.8016 125.968V128.2C10.8256 130.48 10.2016 132.424 9.55363 133.792C9.16963 134.608 8.73763 135.328 8.25763 135.976H4.94563C7.20163 132.904 7.46563 130.096 7.46563 128.608H0.745625V125.968H10.8016ZM19.5136 128.584V131.416H16.6336V136.096H13.7776V124.48H16.6336V128.584H19.5136ZM2.97763 137.416H16.9216V144.688H2.97763V137.416ZM14.3056 142.168V139.912H5.47363V142.168H14.3056ZM39.656 131.224V134.344H36.896V144.688H33.824V124.768H36.896V131.224H39.656ZM29.864 135.256C30.296 135.712 30.8 136.12 31.4 136.528V139.552C30.8 139.336 30.176 139.048 29.528 138.664C28.448 138.016 27.08 137.008 26 135.376C24.92 137.008 23.576 138.016 22.496 138.664C21.848 139.048 21.224 139.336 20.6 139.552V136.528C20.84 136.384 21.056 136.24 21.272 136.072C21.632 135.808 22.016 135.496 22.28 135.232C24.152 133.24 24.584 131.344 24.584 128.56V126.28H27.704V128.56C27.704 131.344 28.208 133.504 29.864 135.256ZM67.7107 131.224V134.344H64.9507V144.688H61.8787V124.768H64.9507V131.224H67.7107ZM57.9187 135.256C58.3507 135.712 58.8547 136.12 59.4547 136.528V139.552C58.8547 139.336 58.2307 139.048 57.5827 138.664C56.5027 138.016 55.1347 137.008 54.0547 135.376C52.9747 137.008 51.6307 138.016 50.5507 138.664C49.9027 139.048 49.2787 139.336 48.6547 139.552V136.528C48.8947 136.384 49.1107 136.24 49.3267 136.072C49.6867 135.808 50.0707 135.496 50.3347 135.232C52.2067 133.24 52.6387 131.344 52.6387 128.56V126.28H55.7587V128.56C55.7587 131.344 56.2627 133.504 57.9187 135.256ZM80.7635 127.84H76.6595C77.6195 130.264 79.2035 131.896 80.7395 132.544V135.208C78.3395 134.344 76.5395 133.168 75.2675 130.864C74.1155 133.456 70.1795 135.304 69.5555 135.496V132.856C72.3635 131.488 73.2755 129.208 73.7315 127.84H69.2675V125.056H80.7635V127.84ZM71.8115 144.208V137.56H74.8835V141.424H86.1875V144.208H71.8115ZM85.7555 136.984H82.7075V124.48H85.7555V136.984ZM108.262 127.816V130.48H105.598V136.432H88.3897V133.912H92.2777V131.392H95.4697V133.912H96.4297C97.3897 131.224 97.4617 128.464 97.4617 127.288H89.9017V124.672H100.63V127.336C100.63 130.432 100.006 132.568 99.3577 133.912H102.334V124.504H105.598V127.816H108.262ZM91.0057 144.688V137.68H94.1257V141.736H105.934V144.688H91.0057Z" fill="#493628"/>
<defs>
<clipPath id="clip0_137_1418">
<rect width="100" height="100" fill="white" transform="translate(5)"/>
</clipPath>
</defs>
</svg>
