<svg width="32" height="32" viewBox="0 0 32 32" fill="none" xmlns="http://www.w3.org/2000/svg">
<g clip-path="url(#clip0_137_1444)">
<path d="M28.4445 7.11122H21.9556L21.0134 4.69345C20.8845 4.35934 20.6576 4.07195 20.3626 3.86893C20.0676 3.66591 19.7182 3.55673 19.3601 3.55567H12.6401C12.2804 3.55493 11.929 3.66329 11.6323 3.86642C11.3355 4.06956 11.1073 4.35792 10.9778 4.69345L10.0445 7.11122H3.55561C3.08411 7.11122 2.63193 7.29852 2.29853 7.63192C1.96513 7.96532 1.77783 8.41751 1.77783 8.889V26.6668C1.77783 27.1383 1.96513 27.5905 2.29853 27.9239C2.63193 28.2573 3.08411 28.4446 3.55561 28.4446H28.4445C28.916 28.4446 29.3682 28.2573 29.7016 27.9239C30.035 27.5905 30.2223 27.1383 30.2223 26.6668V8.889C30.2223 8.41751 30.035 7.96532 29.7016 7.63192C29.3682 7.29852 28.916 7.11122 28.4445 7.11122ZM28.4445 26.6668H3.55561V8.889H11.2623L12.6401 5.33345H19.3601L20.7378 8.889H28.4445V26.6668Z" fill="#493628"/>
<path d="M8 16.8889C8 18.4712 8.46919 20.0179 9.34824 21.3335C10.2273 22.6491 11.4767 23.6745 12.9385 24.28C14.4003 24.8855 16.0089 25.0439 17.5607 24.7352C19.1126 24.4265 20.538 23.6646 21.6569 22.5458C22.7757 21.4269 23.5376 20.0015 23.8463 18.4496C24.155 16.8978 23.9965 15.2893 23.391 13.8274C22.7855 12.3656 21.7602 11.1162 20.4446 10.2372C19.129 9.35811 17.5823 8.88892 16 8.88892C13.8783 8.88892 11.8434 9.73177 10.3431 11.2321C8.84285 12.7324 8 14.7672 8 16.8889ZM22.5778 16.8889C22.5778 18.1899 22.192 19.4616 21.4692 20.5433C20.7464 21.625 19.7191 22.4681 18.5172 22.966C17.3153 23.4638 15.9927 23.5941 14.7167 23.3403C13.4408 23.0865 12.2687 22.46 11.3488 21.5401C10.4289 20.6202 9.80242 19.4481 9.54861 18.1722C9.29481 16.8962 9.42507 15.5736 9.92293 14.3717C10.4208 13.1698 11.2639 12.1425 12.3456 11.4197C13.4273 10.6969 14.699 10.3111 16 10.3111C17.7438 10.3135 19.4155 11.0073 20.6486 12.2403C21.8817 13.4734 22.5754 15.1451 22.5778 16.8889Z" fill="#493628"/>
<path d="M8.32899 11.4045C8.32899 11.2159 8.25407 11.035 8.12071 10.9016C7.98735 10.7683 7.80648 10.6934 7.61788 10.6934H5.48455C5.29595 10.6934 5.11508 10.7683 4.98172 10.9016C4.84836 11.035 4.77344 11.2159 4.77344 11.4045C4.77344 11.5931 4.84836 11.7739 4.98172 11.9073C5.11508 12.0407 5.29595 12.1156 5.48455 12.1156H7.61788C7.80648 12.1156 7.98735 12.0407 8.12071 11.9073C8.25407 11.7739 8.32899 11.5931 8.32899 11.4045Z" fill="#493628"/>
<path d="M10.9689 16.8889C10.9789 17.8264 11.2548 18.7418 11.7647 19.5286C12.2745 20.3153 12.9973 20.9412 13.8489 21.3333L14.6044 20.1156C14.0954 19.9451 13.6317 19.6616 13.2479 19.2864C12.864 18.9111 12.5702 18.4538 12.3883 17.9488C12.2064 17.4438 12.1413 16.9041 12.1977 16.3703C12.2541 15.8365 12.4306 15.3224 12.7141 14.8666C12.9975 14.4107 13.3805 14.025 13.8342 13.7383C14.288 13.4515 14.8008 13.2713 15.3342 13.211C15.8676 13.1507 16.4077 13.212 16.914 13.3902C17.4203 13.5684 17.8797 13.8589 18.2578 14.24L19.0222 13.0133C18.2945 12.4237 17.4143 12.0531 16.484 11.9445C15.5537 11.8359 14.6118 11.9938 13.7678 12.4C12.9239 12.8061 12.2127 13.4437 11.7172 14.2384C11.2217 15.0332 10.9621 15.9523 10.9689 16.8889Z" fill="#493628"/>
</g>
<defs>
<clipPath id="clip0_137_1444">
<rect width="32" height="32" fill="white"/>
</clipPath>
</defs>
</svg>
