<svg width="32" height="32" viewBox="0 0 32 32" fill="none" xmlns="http://www.w3.org/2000/svg">
<g clip-path="url(#clip0_137_1440)">
<path d="M28.4445 7.11122H21.9556L21.0134 4.69345C20.8845 4.35934 20.6576 4.07195 20.3626 3.86893C20.0676 3.66591 19.7182 3.55673 19.3601 3.55567H12.6401C12.2804 3.55493 11.929 3.66329 11.6323 3.86642C11.3355 4.06956 11.1073 4.35792 10.9778 4.69345L10.0445 7.11122H3.55561C3.08411 7.11122 2.63193 7.29852 2.29853 7.63192C1.96513 7.96532 1.77783 8.41751 1.77783 8.889V26.6668C1.77783 27.1383 1.96513 27.5905 2.29853 27.9239C2.63193 28.2573 3.08411 28.4446 3.55561 28.4446H28.4445C28.916 28.4446 29.3682 28.2573 29.7016 27.9239C30.035 27.5905 30.2223 27.1383 30.2223 26.6668V8.889C30.2223 8.41751 30.035 7.96532 29.7016 7.63192C29.3682 7.29852 28.916 7.11122 28.4445 7.11122ZM5.4845 12.1157C5.2959 12.1157 5.11503 12.0407 4.98167 11.9074C4.84831 11.774 4.77339 11.5932 4.77339 11.4046C4.77339 11.216 4.84831 11.0351 4.98167 10.9017C5.11503 10.7684 5.2959 10.6934 5.4845 10.6934H7.61783C7.80643 10.6934 7.9873 10.7684 8.12066 10.9017C8.25402 11.0351 8.32894 11.216 8.32894 11.4046C8.32894 11.5932 8.25402 11.774 8.12066 11.9074C7.9873 12.0407 7.80643 12.1157 7.61783 12.1157H5.4845ZM16.0001 24.889C14.4178 24.889 12.8711 24.4198 11.5555 23.5408C10.2399 22.6617 9.21452 21.4123 8.60902 19.9505C8.00352 18.4887 7.84509 16.8801 8.15377 15.3283C8.46245 13.7764 9.22438 12.351 10.3432 11.2321C11.462 10.1133 12.8875 9.3514 14.4393 9.04272C15.9912 8.73404 17.5997 8.89246 19.0615 9.49797C20.5233 10.1035 21.7728 11.1288 22.6518 12.4444C23.5309 13.76 24.0001 15.3068 24.0001 16.889C24.0001 19.0107 23.1572 21.0456 21.6569 22.5459C20.1566 24.0461 18.1218 24.889 16.0001 24.889Z" fill="#493628"/>
<path d="M9.87549 16.9422C9.87728 18.1415 10.2222 19.3153 10.8696 20.3249C11.5169 21.3345 12.4397 22.1378 13.5288 22.6399L14.4977 21.0933C13.9075 20.8421 13.3787 20.4662 12.9476 19.9914C12.5164 19.5165 12.1932 18.954 12 18.3424C11.8068 17.7308 11.7483 17.0846 11.8285 16.4483C11.9086 15.8119 12.1256 15.2005 12.4644 14.6559C12.8032 14.1113 13.2559 13.6465 13.7913 13.2934C14.3268 12.9403 14.9323 12.7073 15.5663 12.6104C16.2003 12.5134 16.8478 12.5548 17.4643 12.7318C18.0808 12.9088 18.6516 13.2171 19.1377 13.6355L20.1066 12.0711C19.186 11.3236 18.0724 10.8523 16.8948 10.7117C15.7173 10.5712 14.5241 10.7671 13.4534 11.2769C12.3826 11.7867 11.4783 12.5894 10.845 13.5921C10.2118 14.5947 9.87565 15.7563 9.87549 16.9422Z" fill="#493628"/>
</g>
<defs>
<clipPath id="clip0_137_1440">
<rect width="32" height="32" fill="white"/>
</clipPath>
</defs>
</svg>
