<svg width="32" height="32" viewBox="0 0 32 32" fill="none" xmlns="http://www.w3.org/2000/svg">
<path d="M10.3333 3.33325C10.3333 3.06804 10.2279 2.81368 10.0404 2.62615C9.85288 2.43861 9.59852 2.33325 9.33331 2.33325C9.06809 2.33325 8.81374 2.43861 8.6262 2.62615C8.43866 2.81368 8.33331 3.06804 8.33331 3.33325V5.43992C6.41331 5.59325 5.15464 5.96925 4.22931 6.89592C3.30264 7.82125 2.92664 9.08125 2.77197 10.9999H29.228C29.0733 9.07992 28.6973 7.82125 27.7706 6.89592C26.8453 5.96925 25.5853 5.59325 23.6666 5.43859V3.33325C23.6666 3.06804 23.5613 2.81368 23.3737 2.62615C23.1862 2.43861 22.9319 2.33325 22.6666 2.33325C22.4014 2.33325 22.1471 2.43861 21.9595 2.62615C21.772 2.81368 21.6666 3.06804 21.6666 3.33325V5.35059C20.78 5.33325 19.7853 5.33325 18.6666 5.33325H13.3333C12.2146 5.33325 11.22 5.33325 10.3333 5.35059V3.33325Z" fill="#493628"/>
<path fill-rule="evenodd" clip-rule="evenodd" d="M2.66675 16C2.66675 14.8813 2.66675 13.8867 2.68408 13H29.3161C29.3334 13.8867 29.3334 14.8813 29.3334 16V18.6667C29.3334 23.6947 29.3334 26.2093 27.7707 27.7707C26.2081 29.332 23.6947 29.3333 18.6667 29.3333H13.3334C8.30541 29.3333 5.79075 29.3333 4.22941 27.7707C2.66808 26.208 2.66675 23.6947 2.66675 18.6667V16ZM22.6667 18.6667C23.0204 18.6667 23.3595 18.5262 23.6096 18.2761C23.8596 18.0261 24.0001 17.687 24.0001 17.3333C24.0001 16.9797 23.8596 16.6406 23.6096 16.3905C23.3595 16.1405 23.0204 16 22.6667 16C22.3131 16 21.974 16.1405 21.7239 16.3905C21.4739 16.6406 21.3334 16.9797 21.3334 17.3333C21.3334 17.687 21.4739 18.0261 21.7239 18.2761C21.974 18.5262 22.3131 18.6667 22.6667 18.6667ZM22.6667 24C23.0204 24 23.3595 23.8595 23.6096 23.6095C23.8596 23.3594 24.0001 23.0203 24.0001 22.6667C24.0001 22.313 23.8596 21.9739 23.6096 21.7239C23.3595 21.4738 23.0204 21.3333 22.6667 21.3333C22.3131 21.3333 21.974 21.4738 21.7239 21.7239C21.4739 21.9739 21.3334 22.313 21.3334 22.6667C21.3334 23.0203 21.4739 23.3594 21.7239 23.6095C21.974 23.8595 22.3131 24 22.6667 24ZM17.3334 17.3333C17.3334 17.687 17.1929 18.0261 16.9429 18.2761C16.6928 18.5262 16.3537 18.6667 16.0001 18.6667C15.6465 18.6667 15.3073 18.5262 15.0573 18.2761C14.8072 18.0261 14.6667 17.687 14.6667 17.3333C14.6667 16.9797 14.8072 16.6406 15.0573 16.3905C15.3073 16.1405 15.6465 16 16.0001 16C16.3537 16 16.6928 16.1405 16.9429 16.3905C17.1929 16.6406 17.3334 16.9797 17.3334 17.3333ZM17.3334 22.6667C17.3334 23.0203 17.1929 23.3594 16.9429 23.6095C16.6928 23.8595 16.3537 24 16.0001 24C15.6465 24 15.3073 23.8595 15.0573 23.6095C14.8072 23.3594 14.6667 23.0203 14.6667 22.6667C14.6667 22.313 14.8072 21.9739 15.0573 21.7239C15.3073 21.4738 15.6465 21.3333 16.0001 21.3333C16.3537 21.3333 16.6928 21.4738 16.9429 21.7239C17.1929 21.9739 17.3334 22.313 17.3334 22.6667ZM9.33341 18.6667C9.68704 18.6667 10.0262 18.5262 10.2762 18.2761C10.5263 18.0261 10.6667 17.687 10.6667 17.3333C10.6667 16.9797 10.5263 16.6406 10.2762 16.3905C10.0262 16.1405 9.68704 16 9.33341 16C8.97979 16 8.64065 16.1405 8.39061 16.3905C8.14056 16.6406 8.00008 16.9797 8.00008 17.3333C8.00008 17.687 8.14056 18.0261 8.39061 18.2761C8.64065 18.5262 8.97979 18.6667 9.33341 18.6667ZM9.33341 24C9.68704 24 10.0262 23.8595 10.2762 23.6095C10.5263 23.3594 10.6667 23.0203 10.6667 22.6667C10.6667 22.313 10.5263 21.9739 10.2762 21.7239C10.0262 21.4738 9.68704 21.3333 9.33341 21.3333C8.97979 21.3333 8.64065 21.4738 8.39061 21.7239C8.14056 21.9739 8.00008 22.313 8.00008 22.6667C8.00008 23.0203 8.14056 23.3594 8.39061 23.6095C8.64065 23.8595 8.97979 24 9.33341 24Z" fill="#493628"/>
</svg>
