<svg width="32" height="32" viewBox="0 0 32 32" fill="none" xmlns="http://www.w3.org/2000/svg">
<path fill-rule="evenodd" clip-rule="evenodd" d="M13.0374 28.0001H18.9627C23.1241 28.0001 25.2054 28.0001 26.7001 27.0201C27.3452 26.5976 27.9007 26.0521 28.3347 25.4147C29.3334 23.9481 29.3334 21.9041 29.3334 17.8187C29.3334 13.7334 29.3334 11.6894 28.3347 10.2227C27.9007 9.58539 27.3452 9.03987 26.7001 8.6174C25.7401 7.98673 24.5374 7.7614 22.6961 7.6814C21.8174 7.6814 21.0614 7.02806 20.8894 6.1814C20.758 5.56122 20.4164 5.00544 19.9225 4.608C19.4287 4.21055 18.8127 3.99581 18.1787 4.00006H13.8214C12.5041 4.00006 11.3694 4.9134 11.1107 6.1814C10.9387 7.02806 10.1827 7.6814 9.30408 7.6814C7.46408 7.7614 6.26141 7.98806 5.30008 8.6174C4.65546 9.04001 4.10045 9.58551 3.66675 10.2227C2.66675 11.6894 2.66675 13.7321 2.66675 17.8187C2.66675 21.9054 2.66675 23.9467 3.66541 25.4147C4.09741 26.0494 4.65208 26.5947 5.30008 27.0201C6.79475 28.0001 8.87608 28.0001 13.0374 28.0001ZM16.0001 12.3641C12.9321 12.3641 10.4441 14.8054 10.4441 17.8174C10.4441 20.8294 12.9334 23.2747 16.0001 23.2747C19.0667 23.2747 21.5561 20.8321 21.5561 17.8201C21.5561 14.8081 19.0667 12.3641 16.0001 12.3641ZM16.0001 14.5454C14.1601 14.5454 12.6667 16.0107 12.6667 17.8187C12.6667 19.6254 14.1601 21.0907 16.0001 21.0907C17.8401 21.0907 19.3334 19.6254 19.3334 17.8187C19.3334 16.0121 17.8401 14.5454 16.0001 14.5454ZM22.2961 13.4547C22.2961 12.8521 22.7934 12.3641 23.4081 12.3641H24.8881C25.5014 12.3641 26.0001 12.8521 26.0001 13.4547C25.9973 13.7466 25.8787 14.0254 25.6705 14.2299C25.4622 14.4344 25.1813 14.5479 24.8894 14.5454H23.4081C23.2634 14.5468 23.12 14.5197 22.9858 14.4657C22.8516 14.4116 22.7294 14.3317 22.6262 14.2304C22.5229 14.1291 22.4406 14.0085 22.384 13.8754C22.3273 13.7423 22.2975 13.5994 22.2961 13.4547Z" fill="#493628"/>
</svg>
